<svg xmlns="http://www.w3.org/2000/svg" xmlns:xlink="http://www.w3.org/1999/xlink" version="1.1" width="256" height="256" viewBox="0 0 256 256" xml:space="preserve">
<desc>Created with Fabric.js 1.7.22</desc>
<defs>
</defs>
<g transform="translate(128 128) scale(0.72 0.72)" style="">
	<g style="stroke: none; stroke-width: 0; stroke-dasharray: none; stroke-linecap: butt; stroke-linejoin: miter; stroke-miterlimit: 10; fill: none; fill-rule: nonzero; opacity: 1;" transform="translate(-175.05 -175.05000000000004) scale(3.89 3.89)" >
	<ellipse cx="60.792" cy="39.156000000000006" rx="1.692" ry="1.706" style="stroke: none; stroke-width: 1; stroke-dasharray: none; stroke-linecap: butt; stroke-linejoin: miter; stroke-miterlimit: 10; fill: rgb(0,0,0); fill-rule: nonzero; opacity: 1;" transform=" matrix(1 0 0 1 0 0) "/>
	<path d="M 60.609 64.071 H 26.98 c -3.022 0 -5.48 -2.475 -5.48 -5.517 V 37.829 c 0 -3.042 2.458 -5.517 5.48 -5.517 h 2.438 c 0.368 0 0.729 -0.064 1.075 -0.19 c 0.519 -0.188 1.093 0.078 1.283 0.596 c 0.189 0.519 -0.078 1.093 -0.596 1.283 c -0.566 0.207 -1.159 0.312 -1.761 0.312 H 26.98 c -1.919 0 -3.48 1.578 -3.48 3.517 v 20.726 c 0 1.939 1.562 3.517 3.48 3.517 h 33.629 c 0.553 0 1 0.447 1 1 S 61.162 64.071 60.609 64.071 z" style="stroke: none; stroke-width: 1; stroke-dasharray: none; stroke-linecap: butt; stroke-linejoin: miter; stroke-miterlimit: 10; fill: rgb(0,0,0); fill-rule: nonzero; opacity: 1;" transform=" matrix(1 0 0 1 0 0) " stroke-linecap="round" />
	<path d="M 45 58.542 c -6.134 0 -11.125 -5.027 -11.125 -11.207 c 0 -2.992 1.156 -5.805 3.255 -7.922 c 0.387 -0.393 1.022 -0.395 1.414 -0.006 c 0.392 0.389 0.395 1.022 0.006 1.414 c -1.725 1.74 -2.675 4.053 -2.675 6.514 c 0 5.077 4.093 9.207 9.125 9.207 c 2.436 0 4.727 -0.957 6.449 -2.693 c 0.39 -0.393 1.022 -0.394 1.414 -0.006 c 0.393 0.389 0.395 1.022 0.006 1.414 C 50.768 57.375 47.973 58.542 45 58.542 z" style="stroke: none; stroke-width: 1; stroke-dasharray: none; stroke-linecap: butt; stroke-linejoin: miter; stroke-miterlimit: 10; fill: rgb(0,0,0); fill-rule: nonzero; opacity: 1;" transform=" matrix(1 0 0 1 0 0) " stroke-linecap="round" />
	<path d="M 66.65 62.201 c -0.202 0 -0.405 -0.061 -0.582 -0.188 c -0.449 -0.322 -0.552 -0.947 -0.229 -1.396 c 0.433 -0.603 0.661 -1.316 0.661 -2.063 V 37.829 c 0 -1.939 -1.562 -3.517 -3.48 -3.517 h -2.438 c -1.909 0 -3.653 -1.053 -4.551 -2.748 l -0.736 -1.389 c -0.735 -1.386 -2.158 -2.247 -3.715 -2.247 H 38.421 c -1.227 0 -2.39 0.539 -3.192 1.477 c -0.358 0.42 -0.99 0.47 -1.41 0.111 c -0.42 -0.358 -0.47 -0.99 -0.111 -1.41 c 1.182 -1.384 2.899 -2.178 4.712 -2.178 h 13.158 c 2.299 0 4.399 1.269 5.482 3.31 l 0.736 1.389 c 0.55 1.039 1.616 1.684 2.783 1.684 h 2.438 c 3.021 0 5.48 2.475 5.48 5.517 v 20.726 c 0 1.168 -0.358 2.285 -1.036 3.229 C 67.269 62.057 66.962 62.201 66.65 62.201 z" style="stroke: none; stroke-width: 1; stroke-dasharray: none; stroke-linecap: butt; stroke-linejoin: miter; stroke-miterlimit: 10; fill: rgb(0,0,0); fill-rule: nonzero; opacity: 1;" transform=" matrix(1 0 0 1 0 0) " stroke-linecap="round" />
	<path d="M 54.939 50.294 c -0.063 0 -0.126 -0.006 -0.19 -0.018 c -0.542 -0.104 -0.896 -0.629 -0.793 -1.172 c 0.112 -0.58 0.169 -1.176 0.169 -1.77 c 0 -5.077 -4.094 -9.208 -9.125 -9.208 c -0.614 0 -1.228 0.062 -1.823 0.184 c -0.544 0.111 -1.07 -0.239 -1.18 -0.779 c -0.111 -0.542 0.238 -1.07 0.779 -1.18 c 0.728 -0.149 1.476 -0.225 2.225 -0.225 c 6.135 0 11.125 5.028 11.125 11.208 c 0 0.721 -0.068 1.443 -0.204 2.148 C 55.828 49.962 55.409 50.294 54.939 50.294 z" style="stroke: none; stroke-width: 1; stroke-dasharray: none; stroke-linecap: butt; stroke-linejoin: miter; stroke-miterlimit: 10; fill: rgb(0,0,0); fill-rule: nonzero; opacity: 1;" transform=" matrix(1 0 0 1 0 0) " stroke-linecap="round" />
	<path d="M 74.865 78.328 c -0.257 0 -0.513 -0.098 -0.708 -0.294 L 12.079 15.716 c -0.39 -0.391 -0.389 -1.024 0.003 -1.414 c 0.391 -0.389 1.024 -0.389 1.414 0.003 l 62.078 62.317 c 0.391 0.392 0.389 1.024 -0.002 1.414 C 75.376 78.231 75.12 78.328 74.865 78.328 z" style="stroke: none; stroke-width: 1; stroke-dasharray: none; stroke-linecap: butt; stroke-linejoin: miter; stroke-miterlimit: 10; fill: rgb(0,0,0); fill-rule: nonzero; opacity: 1;" transform=" matrix(1 0 0 1 0 0) " stroke-linecap="round" />
	<path d="M 45 90 C 20.187 90 0 69.813 0 45 C 0 20.187 20.187 0 45 0 c 24.813 0 45 20.187 45 45 C 90 69.813 69.813 90 45 90 z M 45 2 C 21.29 2 2 21.29 2 45 c 0 23.71 19.29 43 43 43 c 23.71 0 43 -19.29 43 -43 C 88 21.29 68.71 2 45 2 z" style="stroke: none; stroke-width: 1; stroke-dasharray: none; stroke-linecap: butt; stroke-linejoin: miter; stroke-miterlimit: 10; fill: rgb(0,0,0); fill-rule: nonzero; opacity: 1;" transform=" matrix(1 0 0 1 0 0) " stroke-linecap="round" />
</g>
</g>
</svg>